{"title":"Pixels {2015} NEW LAT CAM X264 AC3-MRG","uid":12165043,"size":635457868,"categoryP":"video","categoryS":"movies","magnet":"?xt=urn:btih:aada7b171d9d56f3af119386f1ab65382b9e03c7&amp;dn=Pixels+%7B2015%7D+NEW+LAT+CAM+X264+AC3-MRG&amp;tr=udp%3A%2F%2Ftracker.openbittorrent.com%3A80&amp;tr=udp%3A%2F%2Fopen.demonii.com%3A1337&amp;tr=udp%3A%2F%2Ftracker.coppersurfer.tk%3A6969&amp;tr=udp%3A%2F%2Fexodus.desync.com%3A6969","seeders":1,"leechers":1,"uploader":"SaM","files":5,"time":1438008179,"description":"Pixels {2015} NEW LAT CAM X264 AC3-MRG\n\nThanks to mr maker for better vid..............\n\nFormat                      : Matroska\nFormat version              : Version 4 / Version 2\nFile size                   : 605 MiB\nDuration                    : 1h 37mn\nOverall bit rate            : 872 Kbps\nWriting application         : Lavf56.25.101\nWriting library             : Lavf56.25.101\n\nVideo\nID                          : 1\nFormat                      : AVC\nFormat/Info                 : Advanced Video Codec\nFormat profile              : Baseline@L3\nFormat settings, CABAC      : No\nFormat settings, ReFrames   : 1 frame\nCodec ID                    : V_MPEG4/ISO/AVC\nDuration                    : 1h 37mn\nBit rate                    : 726 Kbps\nWidth                       : 640 pixels\nHeight                      : 360 pixels\nDisplay aspect ratio        : 16:9\nFrame rate mode             : Constant\nFrame rate                  : 30.000 fps\nColor space                 : YUV\nChroma subsampling          : 4:2:0\nBit depth                   : 8 bits\nScan type                   : Progressive\nBits/(Pixel*Frame)          : 0.105\nStream size                 : 504 MiB (83%)\nDefault                     : Yes\nForced                      : No\n\nAudio\nID                          : 2\nFormat                      : AC-3\nFormat/Info                 : Audio Coding 3\nMode extension              : CM (complete main)\nFormat settings, Endianness : Big\nCodec ID                    : A_AC3\nDuration                    : 1h 37mn\nBit rate mode               : Constant\nBit rate                    : 128 Kbps\nChannel(s)                  : 2 channels\nChannel positions           : Front: L R\nSampling rate               : 48.0 KHz\nCompression mode            : Lossy\nStream size                 : 88.9 MiB (15%)\nLanguage                    : unknown\nDefault                     : Yes\nForced                      : No\n &lt;a href=&quot;\nhttp://extraimago.com/image/Osf&quot; rel=&quot;nofollow&quot; target=&quot;_NEW&quot;&gt;\nhttp://extraimago.com/image/Osf&lt;/a&gt;","torrent":{"xt":"urn:btih:aada7b171d9d56f3af119386f1ab65382b9e03c7","amp;dn":"Pixels+%7B2015%7D+NEW+LAT+CAM+X264+AC3-MRG","amp;tr":["udp%3A%2F%2Ftracker.openbittorrent.com%3A80","udp%3A%2F%2Fopen.demonii.com%3A1337","udp%3A%2F%2Ftracker.coppersurfer.tk%3A6969","udp%3A%2F%2Fexodus.desync.com%3A6969"],"infoHash":"aada7b171d9d56f3af119386f1ab65382b9e03c7","infoHashBuffer":{"type":"Buffer","data":[170,218,123,23,29,157,86,243,175,17,147,134,241,171,101,56,43,158,3,199]},"announce":[],"urlList":[]}}